<?xml version="1.0" encoding="utf-8"?>
<!-- Generator: Adobe Illustrator 22.0.1, SVG Export Plug-In . SVG Version: 6.00 Build 0)  -->
<svg version="1.1" id="Layer_1" xmlns="http://www.w3.org/2000/svg" xmlns:xlink="http://www.w3.org/1999/xlink" x="0px" y="0px"
	 viewBox="0 0 500 500" style="enable-background:new 0 0 500 500;" xml:space="preserve">
<style type="text/css">
	.st0{fill:#FFFFFF;}
</style>
<path d="M375,256h-65.1c-3.3,0-6-2.7-6-6l0,0c0-3.3,2.7-6,6-6H375c66.8,0,122.3-53.5,122.5-120.3c0.2-67-54.1-121.4-121.1-121.1
	C309.5,2.7,256,58.2,256,125v31.5V244V256v79.7V375c0,66.8,53.5,122.3,120.3,122.5c67,0.2,121.4-54.1,121.1-121.1
	C497.3,309.5,441.8,256,375,256z"/>
<path d="M123.6,2.5C56.6,2.3,2.3,56.6,2.5,123.6C2.7,190.5,58.2,244,125,244h65.1c3.3,0,6,2.7,6,6l0,0c0,3.3-2.7,6-6,6H125
	C58.2,256,2.7,309.5,2.5,376.4c-0.2,67,54.1,121.4,121.1,121.1C190.5,497.3,244,441.8,244,375v-31.5V256V244v-79.7V125
	C244,58.2,190.5,2.7,123.6,2.5z"/>
<path class="st0" d="M303.8,303.8h72.9c40.2,0,72.9,32.7,72.9,72.9s-32.7,72.9-72.9,72.9s-72.9-32.7-72.9-72.9V303.8z"/>
<path class="st0" d="M303.8,123.2c0-40.2,32.7-72.9,72.9-72.9s72.9,32.7,72.9,72.9c0,40.2-32.7,72.9-72.9,72.9h-72.9V123.2z"/>
<path class="st0" d="M196.2,196.2h-72.9c-40.2,0-72.9-32.7-72.9-72.9S83,50.3,123.2,50.3s72.9,32.7,72.9,72.9V196.2z"/>
<path class="st0" d="M196.2,376.8c0,40.2-32.7,72.9-72.9,72.9S50.3,417,50.3,376.8c0-40.2,32.7-72.9,72.9-72.9h72.9V376.8z"/>
</svg>
